<?xml version="1.0" encoding="utf-8"?>
<!-- Generator: Adobe Illustrator 25.0.0, SVG Export Plug-In . SVG Version: 6.00 Build 0)  -->
<svg version="1.1" id="Layer_1" xmlns="http://www.w3.org/2000/svg" xmlns:xlink="http://www.w3.org/1999/xlink" x="0px" y="0px"
	 viewBox="0 0 1558 250" style="enable-background:new 0 0 1558 250;" xml:space="preserve">
<style type="text/css">
	.st0{fill:#FFFFFF;}
	.st1{display:none;}
	.st2{display:inline;}
	.st3{font-family:'NeuzeitGro-Bla';}
	.st4{font-size:220px;}
	.st5{font-family:'NeuzeitGro-Reg';}
</style>
<g>
	<polygon class="st0" points="117.2,149.6 201.2,57.5 93.9,142.4 109.1,169 	"/>
	<polygon class="st0" points="118.8,170.7 126.4,167.3 122.2,162.2 	"/>
	<path class="st0" d="M0,0v250h250V0H0z M161.8,212.1l-29-37l-25.4,11.5l-22.5-40.5l-55.9,0.6C30,146,221.1,37.9,221.1,37.9
		L161.8,212.1z"/>
</g>
<g id="Vector">
	<path class="st0" d="M371.5,101h48.8v28.8h-48.8V189h-35.6V42.3h84.5v28.8h-48.8V101z"/>
	<path class="st0" d="M500.7,87.2h35.2l-55.7,147.2h-35.9l18.3-47.3l-35.4-99.9h35.4l17.6,53.5L500.7,87.2z"/>
	<path class="st0" d="M624.8,161.3V189h-87.3l37.8-74.1h-34.8V87.2h86.2l-37.8,74.1H624.8z"/>
	<path class="st0" d="M677.1,57.7c0,10.1-7.7,17.6-17.8,17.6c-10.3,0-17.8-7.5-17.8-17.8s7.5-17.8,18-17.8
		C669.9,39.6,677.1,47.1,677.1,57.7z M676,189h-33.4V87.2H676V189z"/>
	<path class="st0" d="M734.3,189h-33.4V42.3h33.4v81.2L757,87.2h37.8l-29.7,48.4l29.7,53.5H757l-22.7-40.7V189z"/>
	<path class="st0" d="M808,189V42.3h33.4V189H808z"/>
	<path class="st0" d="M944.6,87.2h33.4V189h-33.4v-11.4c-9.2,10.6-20,15.4-34.5,15.4c-29,0-49.9-22.2-49.9-53.5
		c0-32.6,22.2-56.3,52.8-56.3c13,0,21.8,4.2,31.7,15V87.2z M895.8,138.9c0,15.6,10.6,27.7,24.2,27.7c13.9,0,25.1-12.8,25.1-28.2
		c0-16.3-10.3-27.5-24.9-27.5C905.9,110.9,895.8,122.6,895.8,138.9z"/>
	<path class="st0" d="M1036.6,87.2v11.4c6.6-11.2,13.6-15.4,26-15.4c10.1,0,19.8,3.7,26.2,9.9c6.8,7,9.2,15.4,9.2,33.4V189h-33.4
		v-62.3c0-9.9-5.3-15.8-13.9-15.8s-14.1,6.4-14.1,16.3V189h-33.4V87.2H1036.6z"/>
	<path class="st0" d="M1156.9,57.7c0,10.1-7.7,17.6-17.8,17.6c-10.3,0-17.8-7.5-17.8-17.8s7.5-17.8,18-17.8
		C1149.7,39.6,1156.9,47.1,1156.9,57.7z M1155.8,189h-33.4V87.2h33.4V189z"/>
	<path class="st0" d="M1259.9,173V189h-82.3l51-73c14.7-21.3,18-27.9,18-36.7c0-12.8-10.1-21.8-24.4-21.8c-9.9,0-18,4.6-21.3,12.3
		c-1.8,4.2-2.4,7.5-2.6,15.2h-16.5c0.9-27.9,15.6-43.3,41.8-43.3c24,0,40.7,15,40.7,36.3c0,12.3-4.4,23.1-16.7,40.3l-39.4,54.8
		H1259.9z"/>
	<path class="st0" d="M1376.7,144.8c0,16.5-3.1,26.6-10.3,34.3c-7.7,8.1-19.4,12.3-33.2,12.3c-14.3,0-26.2-4.4-33.9-12.8
		c-7.7-8.1-9.7-16.5-9.7-38.7V91.6c0-19.1,2.2-28.2,8.8-36.1c7.3-8.8,19.4-13.6,34.3-13.6c13.4,0,24.4,3.7,32.6,11
		c8.4,7.7,11.4,16.5,11.4,33.7V144.8z M1307,141.1c0,16.9,0.7,20,5.5,25.5c4.6,5.3,12.5,8.6,20.9,8.6c9,0,17.4-3.7,21.6-9.7
		c3.3-4.8,4.6-11,4.6-21.8V87.6c0-11.4-2-17.2-7.5-22.4c-4.8-4.4-11.4-6.8-18.7-6.8c-9.5,0-17.6,3.7-21.8,10.6
		c-3.7,5.3-4.6,10.3-4.6,23.1V141.1z"/>
	<path class="st0" d="M1479.9,173V189h-82.3l51-73c14.7-21.3,18-27.9,18-36.7c0-12.8-10.1-21.8-24.4-21.8c-9.9,0-18,4.6-21.3,12.3
		c-1.8,4.2-2.4,7.5-2.6,15.2h-16.5c0.9-27.9,15.6-43.3,41.8-43.3c24,0,40.7,15,40.7,36.3c0,12.3-4.4,23.1-16.7,40.3l-39.4,54.8
		H1479.9z"/>
	<path class="st0" d="M1508.1,90.5V73.7l49.7-32.6V189h-17.4V68.9L1508.1,90.5z"/>
</g>
<text id="Text" transform="matrix(1 0 0 1 322.0433 189.0296)" class="st1"><tspan x="0" y="0" class="st2 st3 st4">Fyziklani</tspan><tspan x="843.2" y="0" class="st2 st5 st4">2021</tspan></text>
</svg>
